<?xml version="1.0" encoding="UTF-8" standalone="no"?>
<!-- Generator: Adobe Illustrator 18.0.0, SVG Export Plug-In . SVG Version: 6.00 Build 0)  -->

<svg
   xmlns:dc="http://purl.org/dc/elements/1.1/"
   xmlns:cc="http://creativecommons.org/ns#"
   xmlns:rdf="http://www.w3.org/1999/02/22-rdf-syntax-ns#"
   xmlns:svg="http://www.w3.org/2000/svg"
   xmlns="http://www.w3.org/2000/svg"
   xmlns:sodipodi="http://sodipodi.sourceforge.net/DTD/sodipodi-0.dtd"
   xmlns:inkscape="http://www.inkscape.org/namespaces/inkscape"
   version="1.1"
   id="DESIGNS"
   x="0px"
   y="0px"
   width="256"
   height="256"
   viewBox="0 0 256 256"
   enable-background="new 0 0 32 32"
   xml:space="preserve"
   inkscape:version="0.48.4 r9939"
   sodipodi:docname="icon.svg"><defs
     id="defs43" /><sodipodi:namedview
     pagecolor="#99c18b"
     bordercolor="#666666"
     borderopacity="1"
     objecttolerance="10"
     gridtolerance="10"
     guidetolerance="10"
     inkscape:pageopacity="1"
     inkscape:pageshadow="2"
     inkscape:window-width="1366"
     inkscape:window-height="744"
     id="namedview41"
     showgrid="false"
     inkscape:zoom="1"
     inkscape:cx="15.005863"
     inkscape:cy="9.7361809"
     inkscape:window-x="0"
     inkscape:window-y="24"
     inkscape:window-maximized="1"
     inkscape:current-layer="layer1" /><title
     property="dc:title"
     id="title3">to tag</title><desc
     property="dc:description"
     id="desc5">An icon for &quot;tag&quot; from the Flat Shadows series on to [icon]. Downloaded from http://www.toicon.com/icons/flat-shadows_tag. Licensed CC-BY, see http://toicon.com/license/ for details.</desc><metadata
     id="metadata27"><work
       rdf:about=""
       id="work29"><format
         id="format31">image/svg+xml</format><type
         rdf:resource="http://purl.org/dc/dcmitype/StillImage"
         id="type33" /><license
         rdf:resource="http://creativecommons.org/licenses/by/4.0/"
         id="license35" /><attributionname
         id="attributionname37">Shannon E Thomas</attributionname><attributionurl
         id="attributionurl39">http://www.toicon.com/icons/flat-shadows_tag</attributionurl></work><rdf:RDF><cc:Work
         rdf:about=""><dc:format>image/svg+xml</dc:format><dc:type
           rdf:resource="http://purl.org/dc/dcmitype/StillImage" /><dc:title>to tag</dc:title></cc:Work></rdf:RDF></metadata><g
     inkscape:groupmode="layer"
     id="layer2"
     inkscape:label="square"
     style="display:inline"
     transform="translate(0,224)" /><g
     inkscape:groupmode="layer"
     id="layer1"
     inkscape:label="icon"
     style="display:inline"
     transform="translate(0,224)"><g
       id="g3004"
       transform="matrix(2,0,0,2,0,-224.30287)"><rect
         inkscape:export-ydpi="90"
         inkscape:export-xdpi="90"
         inkscape:export-filename="/home/bjorn/Documents/Burobjorn/FLOSS/WordPress-plugins/tag-pages/svn-repo/tag-pages/assets/icon-128x128.png"
         y="0.15143557"
         x="0"
         height="128"
         width="128"
         id="rect3087"
         style="fill:#008080;display:inline" /><g
         inkscape:export-ydpi="90"
         inkscape:export-xdpi="90"
         inkscape:export-filename="/home/bjorn/Documents/Burobjorn/FLOSS/WordPress-plugins/tag-pages/svn-repo/tag-pages/assets/icon-128x128.png"
         transform="matrix(2.4328577,-2.4328577,2.4328577,2.4328577,-21.775872,56.22701)"
         id="g3089"><g
           id="g7"><path
             style="fill:#ffffff"
             inkscape:connector-curvature="0"
             d="M 16,5 7,14 V 32 H 25 V 14 L 16,5 z m 0,7 c -0.552,0 -1,-0.448 -1,-1 0,-0.552 0.448,-1 1,-1 0.552,0 1,0.448 1,1 0,0.552 -0.448,1 -1,1 z"
             id="path9" /><rect
             style="fill:#8c9898"
             x="13"
             y="17"
             width="6"
             height="1"
             id="rect11" /><rect
             style="fill:#8c9898"
             x="13"
             y="19"
             width="6"
             height="1"
             id="rect13" /><rect
             style="fill:#8c9898"
             x="13"
             y="21"
             width="6"
             height="1"
             id="rect15" /><circle
             d="m 18,11 c 0,1.104569 -0.895431,2 -2,2 -1.104569,0 -2,-0.895431 -2,-2 0,-1.1045695 0.895431,-2 2,-2 1.104569,0 2,0.8954305 2,2 z"
             style="fill:#c2cbca"
             sodipodi:ry="2"
             sodipodi:rx="2"
             sodipodi:cy="11"
             sodipodi:cx="16"
             cx="16"
             cy="11"
             r="2"
             id="circle17" /><path
             style="fill:#8c9898"
             inkscape:connector-curvature="0"
             d="m 16,0 c -3.314,0 -6,2.686 -6,6 0,1.402 0.485,2.688 1.29,3.71 L 12.72,8.28 C 12.269,7.632 12,6.848 12,6 c 0,-2.206 1.794,-4 4,-4 2.206,0 4,1.794 4,4 0,2.206 -1.794,4 -4,4 -0.552,0 -1,0.448 -1,1 0,0.552 0.448,1 1,1 3.314,0 6,-2.686 6,-6 0,-3.314 -2.686,-6 -6,-6 z"
             id="path19" /><path
             style="fill:#a2aeae"
             inkscape:connector-curvature="0"
             d="m 16,12 c -0.276,0 -0.526,-0.112 -0.707,-0.293 l 1.219,1.219 c 0.627,-0.167 1.133,-0.628 1.359,-1.227 C 17.281,11.892 16.654,12 16,12 z"
             id="path21" /><g
             id="g23"><path
               style="fill:#e0e4e3"
               inkscape:connector-curvature="0"
               d="m 20.71,9.71 c -0.742,0.941 -1.762,1.647 -2.932,2.012 0.03,-0.009 0.063,-0.013 0.093,-0.023 -0.226,0.599 -0.731,1.06 -1.359,1.227 L 25,21.414 V 14 L 20.71,9.71 z"
               id="path25" /></g></g></g></g></g></svg>
